<svg height="70" viewBox="0 0 70 70" width="70" xmlns="http://www.w3.org/2000/svg"><g fill="none" fill-rule="evenodd"><path d="M21.405 26.856l.027-5.47-2.334-2.333 8.785-8.784 2.32 2.32 5.47.026 6.479 6.48-2.722 2.722-3.593 3.593-2.438-2.438v-3.383l.688-.688h-3.462l-.122 2.048-7.502 7.503zm27.008 3.81l-4.927-4.927-2.99 2.99-.674-.672-2.99 2.99.484.485-2.99 2.99.237.238-2.56 2.56 4.427 4.427 2.56-2.56.406.406 2.99-2.99.605.603 2.99-2.99-.56-.56z" fill="#ffdaaa" fill-rule="nonzero"/><path d="M32.003 37.32l2.56-2.56-.238-.237 2.991-2.991-.484-.485 2.99-2.99.673.673 2.991-2.991 2.688 2.688 1.524-1.525-.027-5.49 2.328-2.327-8.816-8.816-2.314 2.315-4.86.024 1.663.007 6.48 6.48-2.722 2.722-3.593 3.593-2.438-2.438v-3.383l.688-.688h-3.462l-.122 2.048-9.513 9.514 3 3.001-.56.562 3.001 3.001.437-.437 2.932 2.932.406-.406 2.639 2.64 1.796-1.797z" fill="#fff5cc"/><path d="M25.09 5.742l3.66 3.66L18.001 20.15l-3.659-3.659z" fill="#fff"/><path d="M20.847 1.498l4.244 4.244L13.873 16.96l-4.244-4.244z" fill="#d7fc7e"/><path d="M54.725 16.491l-3.659 3.659L40.317 9.4l3.66-3.66z" fill="#ffb655"/><path d="M59.438 12.716l-4.244 4.244L43.976 5.742l4.245-4.244z" fill="#7c84e8"/><path d="M48.835 49.497l-3.946-3.946H21.513l-4.864 3.036h-5.812v14.104h5.812l19.623 4.685 31.432-13.45-1.789-3.618-4.42-1.633-12.66 5.414z" fill="#ffdaaa"/><path d="M61.426 48.71l-1.12-2.267-4.42-1.633-8.222 3.516 1.171 1.171v4.592z" fill="#ffbb85"/><path d="M1.012 48.587h9.825v19.534H1.012z" fill="#787680"/><path d="M25.479 21.386l-2.334-2.333 6.761-6.76-2.023-2.024-8.785 8.784 2.334 2.333-.027 5.47L23 28.452l2.455-2.456zM36.05 37.32l2.56-2.56-.238-.237 2.991-2.991-.484-.485 2.99-2.99.673.673.967-.968-2.023-2.023-2.99 2.99-.674-.672-2.99 2.99.484.485-2.99 2.99.237.237-2.56 2.56 4.427 4.428 2.024-2.023z" fill="#ffbb85"/><path d="M33.847 39.522l-2.932-2.932-.437.437-3.002-3.001.562-.562-3.002-3L33.4 22.1v-2.51l.688-.689h-3.462l-.122 2.048-9.513 9.514 3 3.001-.56.562 3.001 3.001.437-.437 2.932 2.932.406-.406 2.639 2.64 1.796-1.797-.615-.616zm8.305-20.427l-4.291 4.291 2.023 2.024 3.593-3.593 2.722-2.722-6.48-6.48h-4.047z" fill="#ffc477"/><path d="M18.389 16.492l8.726-8.726-2.024-2.024-10.749 10.75 3.66 3.658 2.022-2.023z" fill="#d8d7da"/><path d="M13.675 12.717l9.195-9.195-2.023-2.024L9.629 12.717l4.244 4.244 2.023-2.024z" fill="#55e072"/><path d="M44.364 9.401l1.635-1.635-2.023-2.024-3.66 3.66 10.75 10.748 2.023-2.023z" fill="#ff7956"/><path d="M48.023 5.742l2.22-2.22-2.023-2.024-4.244 4.244 11.218 11.219 2.023-2.024z" fill="#515be0"/><path d="M25.56 45.551h-4.047l-4.864 3.036h4.047zm27.322 8.538l10.784-4.612-2.17-.802-8.614 3.683zm-32.186 8.602h-4.047l19.623 4.685 1.449-.62zm-9.859-14.104h4.046v14.104h-4.046z" fill="#ffbb85"/><path d="M1.012 48.587h4.047v19.534H1.012z" fill="#57565c"/><g fill="#000"><g fill-rule="nonzero"><path d="M43.486 24.308l-2.99 2.99-.674-.672-4.421 4.421.485.484-2.991 2.992.237.236-3.332 3.332-1.5-1.501 5.92-5.921-1.43-1.43-6.358 6.357-1.57-1.57 6.357-6.358-1.43-1.431-5.797 5.797-1.57-1.571 8.068-8.07-1.43-1.43-9.5 9.5 3.001 3.001-.561.562 4.432 4.432.437-.437 2.932 2.932.406-.406 1.924 1.923 1.43-1.43-1.923-1.924.366-.365 4.427 4.427 2.56-2.56.406.406 2.991-2.99.604.603 4.422-4.421-.56-.56 2.99-2.99zm-5.926 14.88l-1.13 1.128-2.997-2.996 1.13-1.13zm1.836-1.026l-3.64-3.64 1.56-1.56 3.64 3.64zm.426-8.675l4.729 4.729-1.56 1.56-4.728-4.729zm3.664-2.317l3.496 3.496-1.56 1.56-3.496-3.496z"/><path d="M14.342 17.922l3.66 3.66 1.096-1.098 1.32 1.32v4.43h2.027v-5.265l-1.916-1.916 7.354-7.353 1.898 1.898 5.47.027 5.47 5.47-1.981 1.982-1.447-1.447-1.43 1.43 1.446 1.447-1.472 1.472-1.426-1.426v-2.545l2.314-2.314-1.43-1.43-1.627 1.625h-2.624l-1.528-1.528-1.43 1.43 2.12 2.122h2.181v3.477l3.45 3.45 7.745-7.745-7.489-7.49-5.47-.026-1.31-1.31.868-.868-5.09-5.09L20.847.067 8.198 12.717l5.675 5.675zm12.977-8.52l-9.318 9.317-2.228-2.227 9.318-9.32zm-6.472-6.473l2.813 2.813-9.787 9.788-2.813-2.813zM0 69.133h11.849V47.576H0zm2.023-19.534h7.802v17.51H2.023z"/></g><path d="M66.644 49.498l-5.176-1.912-11.62 4.97v-3.478l-4.54-4.538H21.223l-4.864 3.036h-2.824v2.023h3.404l4.864-3.036H44.47l3.354 3.353v3.161H30.848v2.024h18.194l12.48-5.338 3.665 1.354 1.136 2.3-30.142 12.897-19.413-4.635h-3.233v2.024h2.996l19.831 4.735 32.722-14.002zm-54.756-19.04h4.014v2.023h-4.014zm1.751 8.558l3.476-2.006 1.011 1.752-3.475 2.007zm0-15.094l1.011-1.753 3.476 2.007-1.011 1.753zm39.526 6.536h4.014v2.023h-4.014zm-2.226 8.306l1.011-1.753 3.476 2.008-1.012 1.752zm-.001-14.588l3.476-2.007 1.012 1.752-3.476 2.007z"/><path d="M39.584 13.3l1.6-1.6 7.384 7.385-1.911 1.91v5.24h2.027V21.83L50 20.515l1.066 1.066 3.659-3.659.47.47 5.674-5.675L48.22.067l-4.244 4.244-5.09 5.09.867.867-1.6 1.6zM48.22 2.928l9.787 9.788-2.813 2.813-9.787-9.788zm-4.244 4.244l9.318 9.319-2.228 2.227L41.748 9.4z" fill-rule="nonzero"/><path d="M50.734 48.113l5.18-2.215 3.798 1.404.701-1.898-4.555-1.683-5.92 2.532z"/></g><path d="M54.836 13.79l-2.92-2.92 1.431-1.43 2.92 2.918zm-3.873-3.874l-1.431-1.43 1.431-1.432 1.43 1.431zM48.578 7.53l-1.43-1.43 1.43-1.431 1.431 1.43zm-12.21 57.237l-.795-1.86 11.294-4.833.796 1.86zm12.536-5.364l-.796-1.86 1.86-.796.796 1.86zm3.1-1.327l-.796-1.86 1.86-.796.797 1.86zM8.476 65.48H6.452v-7.508h2.024zm0-8.857H6.452v-2.024h2.024zm0-3.372H6.452v-2.024h2.024z" fill="#fff" fill-rule="nonzero"/></g></svg>