<svg height="64" viewBox="0 0 48 64" width="48" xmlns="http://www.w3.org/2000/svg"><g fill="none" fill-rule="evenodd"><path d="M25.474 5.835l6.519-.652a12.46 12.46 0 0 1 5.615.732l1.174.44a12.462 12.462 0 0 0 7.398.421v7.53a12.462 12.462 0 0 1-7.398-.422l-1.174-.44a12.461 12.461 0 0 0-5.615-.731l-6.519.652" fill="#eb4f27"/><path d="M38.782 6.355l-1.174-.44a12.461 12.461 0 0 0-5.615-.732l-6.519.652V9.51l6.519-.652a12.46 12.46 0 0 1 5.615.732l1.174.44a12.462 12.462 0 0 0 7.398.421V6.776a12.462 12.462 0 0 1-7.398-.421z" fill="#ff6442"/><path d="M28.298 36.705h6.588v26.353H16.063" fill="#fef0bd"/><path d="M1.24 59.293h14.823v3.53H1.239z" fill="#babaf2"/><path d="M16.298 59.293h18.588v3.294H16.298z" fill="#fff"/><path d="M3.827 55.529h14.824v3.53H3.827z" fill="#9797f3"/><path d="M5.474 51.764h14.824v3.53H5.474z" fill="#babaf2"/><path d="M8.063 48h14.823v3.529H8.063z" fill="#9797f3"/><path d="M9.71 44.235h14.823v3.53H9.71zm3.53-7.53h14.822v3.53H13.24z" fill="#babaf2"/><path d="M12.298 40.47H27.12V44H12.298z" fill="#9797f3"/><g fill="#000"><path d="M45.952 5.863a11.46 11.46 0 0 1-6.84-.39l-1.173-.44a13.477 13.477 0 0 0-6.04-.786l-5.484.548v-1.03h-1.882v32H12.298v3.764h-1.882v3.765H8.533v3.764H6.651v3.765H4.769v3.765H2.886v3.764H.063V64h35.764V35.764h-9.412V14.216l5.671-.567c1.75-.175 3.545.06 5.192.677l1.173.44a13.364 13.364 0 0 0 7.957.453l.713-.178V5.57zM12.298 41.411h13.176v1.883H12.298zm-1.882 3.765h13.176v1.882H10.416zM8.533 48.94H21.71v1.882H8.533zm-1.882 3.764h13.176v1.883H6.651zm8.47 9.412H1.945v-1.882h13.176zM4.77 58.352V56.47h13.176v1.882zm29.176-20.705v24.47H17.004v-1.882h2.823V56.47h1.883v-3.765h1.882v-3.764h1.882v-3.765h1.883V41.41h1.882v-3.764zm-6.588 1.882H14.18v-1.882h13.177zM45.24 13.547a11.465 11.465 0 0 1-6.127-.544l-1.173-.44a13.477 13.477 0 0 0-6.04-.787l-5.484.549V6.687l5.671-.567c1.75-.175 3.545.059 5.192.676l1.173.44a13.334 13.334 0 0 0 6.788.692v5.62z" fill-rule="nonzero"/><path d="M24.533 0h1.882v1.882h-1.882zm5.647 54.588h1.882v1.882H30.18zm0-3.765h1.882v1.882H30.18zm0 7.529h1.882v1.883H30.18z"/></g></g></svg>