<svg height="58" viewBox="0 0 58 58" width="58" xmlns="http://www.w3.org/2000/svg"><g fill="none" fill-rule="evenodd"><path d="M26.92 20.341h3.419v3.419H26.92z" fill="#fe3934"/><path d="M30.339 16.923H26.92V4.104l1.71-2.563 1.709 2.563z" fill="#ff836d"/><path d="M38.885 22.905h3.418v3.419h-3.418zm-23.929 0h3.419v3.419h-3.419z" fill="#9797f3"/><path d="M38.885 19.487h3.418v-5.982h11.964l1.71-1.71-1.71-1.709H38.885zm-20.51 0h-3.419v-5.982H2.992l-1.709-1.71 1.71-1.709h15.382z" fill="#babaf2"/><circle cx="28.63" cy="42.561" fill="#ffbf28" r="14.528"/><circle cx="28.63" cy="42.561" fill="#fef0bd" r="8.759"/><g fill-rule="nonzero"><path d="M28.63 57.943c-8.482 0-15.383-6.9-15.383-15.382s6.9-15.383 15.383-15.383 15.382 6.9 15.382 15.383c0 8.481-6.9 15.382-15.382 15.382zm0-29.056c-7.54 0-13.674 6.134-13.674 13.674 0 7.539 6.134 13.673 13.674 13.673S42.303 50.1 42.303 42.56c0-7.54-6.134-13.674-13.673-13.674z" fill="#000"/><path d="M28.636 54.525h-.006c-.624 0-1.251-.049-1.864-.145l.264-1.688c.525.082 1.064.124 1.6.124zm1.87-.147l-.266-1.688a10.23 10.23 0 0 0 1.564-.375l.528 1.626c-.593.193-1.208.34-1.826.437zm-5.566-.433a11.938 11.938 0 0 1-1.736-.719l.776-1.523c.477.244.978.45 1.487.616zm9.126-.724l-.777-1.522c.476-.243.937-.527 1.37-.842l1.006 1.382c-.505.367-1.043.698-1.599.982zm-12.463-.976a12.051 12.051 0 0 1-1.427-1.219l1.208-1.209c.379.379.79.73 1.224 1.045zm15.488-1.226l-1.209-1.208c.38-.38.731-.791 1.046-1.224l1.382 1.005c-.367.505-.777.985-1.219 1.427zm-18.135-1.418a11.99 11.99 0 0 1-.983-1.598l1.521-.778c.244.475.527.936.843 1.37zm20.336-1.609l-1.522-.777c.244-.477.451-.977.616-1.486l1.626.528a11.925 11.925 0 0 1-.72 1.735zm-22.04-1.723a11.929 11.929 0 0 1-.44-1.825l1.689-.267c.084.529.21 1.055.376 1.563zm23.196-1.839l-1.688-.264c.083-.528.125-1.068.125-1.605v-.024h1.709v.024c0 .626-.049 1.255-.146 1.87zm-22.073-1.857h-1.71v-.012c0-.622.049-1.247.144-1.858l1.689.264a10.33 10.33 0 0 0-.123 1.594zm20.381-1.64a10.2 10.2 0 0 0-.377-1.562l1.625-.531c.193.593.342 1.207.44 1.825zm-19.886-1.53l-1.626-.526a11.93 11.93 0 0 1 .717-1.737l1.523.776c-.243.477-.45.977-.614 1.487zm18.89-1.516a10.314 10.314 0 0 0-.844-1.37l1.38-1.008c.369.505.7 1.042.985 1.597zm-17.435-1.344l-1.383-1.004c.366-.505.776-.986 1.217-1.428l1.21 1.207c-.378.38-.73.792-1.044 1.225zm15.543-1.247c-.38-.378-.792-.73-1.225-1.044l1.003-1.383c.505.366.986.775 1.428 1.216zM22.59 34.271l-1.007-1.38c.505-.369 1.042-.7 1.597-.985l.78 1.522c-.476.243-.937.527-1.37.843zm10.679-.858c-.478-.243-.979-.45-1.488-.614l.525-1.626c.595.191 1.18.432 1.737.716zm-7.825-.604l-.53-1.624a11.935 11.935 0 0 1 1.825-.44l.268 1.688c-.529.084-1.055.21-1.563.376zm4.773-.381a10.375 10.375 0 0 0-1.588-.122h-.018v-1.71h.018c.62 0 1.243.048 1.85.143z" fill="#fff"/><path d="M31.193 24.614h-5.127v-5.127h5.127zm-3.418-1.709h1.71v-1.709h-1.71zm3.418-5.127h-5.127V3.846L28.63 0l2.563 3.846zm-3.418-1.71h1.71V4.364l-.855-1.282-.855 1.282zm15.383 11.11H38.03v-5.127h5.128zm-3.419-1.71h1.71V23.76h-1.71zm3.419-5.127H38.03V9.231h16.591l2.564 2.565-2.564 2.563H43.158zm-3.419-1.709h1.71V12.65h12.464l.855-.854-.855-.855H39.74zM19.23 27.178h-5.128v-5.127h5.127zm-3.42-1.71h1.71V23.76h-1.71zm3.42-5.127h-5.128V14.36H2.638L.075 11.796l2.563-2.564H19.23zm-3.42-1.709h1.71v-7.691H3.346l-.854.855.854.854h12.465z" fill="#000"/></g><path d="M27.918 46.782V45.7c-.764-.034-1.504-.24-1.938-.49l.342-1.333a4.026 4.026 0 0 0 1.892.501c.65 0 1.094-.25 1.094-.706 0-.433-.365-.707-1.208-.992-1.22-.41-2.051-.98-2.051-2.085 0-1.003.706-1.79 1.926-2.029v-1.082h1.116v1.003c.764.034 1.277.193 1.653.376l-.33 1.287c-.297-.125-.821-.387-1.642-.387-.74 0-.98.319-.98.638 0 .376.4.616 1.368.98 1.356.479 1.903 1.105 1.903 2.131 0 1.014-.718 1.88-2.029 2.108v1.163h-1.116z" fill="#000"/></g></svg>