<svg height="69" viewBox="0 0 69 69" width="69" xmlns="http://www.w3.org/2000/svg"><g fill="none" fill-rule="evenodd"><path d="M45.271 1.003l-1.763 1.764v8.691l-3.67 3.67H25.522l-2.359 2.359v15.332l1.764 1.763h3.12v18.897h4.539l1.653-1.652h.007l1.654 1.652h4.538V21.437l7.955-7.956V1.003z" fill="#787680"/><path d="M37.676 26.997h-1.518L30.98 15.128h11.87z" fill="#57565c"/><path d="M39.97 6.732v4.798l-3.597 3.598h-4.262l-3.598-3.598V6.732a5.729 5.729 0 1 1 11.458 0z" fill="#ffdaaa"/><path d="M31.098 15.316h-2.675l5.176 11.87h1.517l.58-1.328z" fill="#d8d7da"/><path d="M35 26.997h-1.517l-5.177-11.869h11.87z" fill="#fff"/><path d="M33.483 26.997H35l1.41-3.232-.83-8.637h-2.678l-.83 8.637z" fill="#ff7956"/><path d="M62.13 20.733v4.798l-3.598 3.598H54.27l-3.597-3.598v-4.798a5.729 5.729 0 1 1 11.458 0z" fill="#ffdaaa"/><path d="M45.321 31.488V46.82l1.764 1.763h3.12V67.48h4.54l1.652-1.652h.008l1.652 1.652h4.54V48.583h3.12l1.763-1.763V31.488l-2.359-2.359h-17.44l-2.36 2.359z" fill="#ffe477"/><path d="M17.812 20.733v4.798l-3.598 3.598H9.95l-3.597-3.598v-4.798a5.729 5.729 0 1 1 11.458 0z" fill="#ffdaaa"/><path d="M1.003 31.488V46.82l1.764 1.763h3.12V67.48h4.54l1.652-1.652h.008l1.652 1.652h4.54V48.583h3.12l1.763-1.763V31.488l-2.359-2.359H3.363l-2.36 2.359z" fill="#7c84e8"/><path d="M13.98 42.066h1.556l1.445-1.79-.85-11.068h-2.747l-.85 11.068z" fill="#515be0"/><path d="M58.297 42.066h1.557l1.445-1.79-.85-11.068h-2.748l-.85 11.068zm-46.993 0h1.557l1.445-1.79-.85-11.068h-2.748l-.85 11.068z" fill="#ffb655"/><path d="M55.622 42.066h1.556l1.446-1.79-.85-11.068h-2.748l-.85 11.068z" fill="#d7fc7e"/><path d="M25.814 53.48h16.854v14H25.814z" fill="#c6c5ca"/><path d="M28.938 34.582l-1.763-1.763V17.487l2.359-2.359H25.52l-2.359 2.359v15.332l1.763 1.763h3.122v18.897h4.012V34.582zM47.52 11.458V2.767l.872-.872v-.892h-3.12l-1.764 1.764v8.691l-3.67 3.67h4.013z" fill="#57565c"/><path d="M32.525 11.53V6.732a5.732 5.732 0 0 1 3.723-5.368 5.729 5.729 0 0 0-7.735 5.368v4.798l3.598 3.598h4.012l-3.598-3.598zm22.16 14.001v-4.798a5.73 5.73 0 0 1 3.722-5.367 5.729 5.729 0 0 0-7.735 5.368v4.797l3.598 3.598h4.012l-3.597-3.598z" fill="#ffbb85"/><path d="M51.097 48.583l-1.763-1.763V31.488l2.359-2.359H47.68l-2.359 2.359V46.82l1.764 1.763h3.12V67.48h4.013V48.583z" fill="#ffb655"/><path d="M10.367 25.531v-4.798a5.73 5.73 0 0 1 3.722-5.367 5.729 5.729 0 0 0-7.735 5.368v4.797l3.597 3.598h4.013l-3.597-3.598z" fill="#ffbb85"/><path d="M6.78 48.583L5.015 46.82V31.488l2.359-2.359H3.362l-2.359 2.359V46.82l1.764 1.763h3.12V67.48H9.9V48.583z" fill="#515be0"/><path d="M25.814 53.48h4.013v14h-4.013z" fill="#898890"/><g fill="#000"><path d="M21.126 6.755h3.542V8.76h-3.542zm.821-3.087l1.005-1.736 3.065 1.775-1.005 1.736zm0 8.178l3.066-1.775 1.005 1.737-3.066 1.775z"/><g fill-rule="nonzero"><path d="M65.537 28.126h-4.583l2.179-2.18v-5.213a6.74 6.74 0 0 0-6.732-6.732 6.74 6.74 0 0 0-6.732 6.732v5.214l2.179 2.179h-4.583l-2.947 2.946v16.163l2.351 2.351h2.533v18.898h5.958l1.241-1.241 1.24 1.24H63.6V49.587h2.534l2.35-2.35V31.072zm-7.943 11.83l-.895 1.107h-.598l-.894-1.107.748-9.745h.89zm-5.919-14.84v-4.383a4.731 4.731 0 0 1 4.725-4.726 4.731 4.731 0 0 1 4.726 4.726v4.383l-3.01 3.01h-3.43zm14.802 21.288l-1.175 1.176h-1.703V35.438h-2.006v31.04h-3.12l-1.065-1.066V49.097h-2.014v16.315l-1.065 1.065h-3.12v-31.04h-2.007V47.58H47.5l-1.176-1.176v-14.5l1.772-1.772h5.853l-.804 10.464 1.998 2.473h2.515l1.997-2.473-.804-10.464h5.855l1.771 1.772zm-44.317 0l-1.176 1.176H19.28V35.438h-2.006v31.04h-3.12l-1.065-1.066V49.097h-2.014v16.315l-1.065 1.065H6.89v-31.04H4.884V47.58H3.182l-1.176-1.176v-14.5l1.772-1.772H9.63l-.804 10.464 1.997 2.473h2.516l1.997-2.473-.803-10.464h5.953v-2.006h-3.851l2.179-2.179v-5.214a6.74 6.74 0 0 0-6.732-6.732 6.74 6.74 0 0 0-6.732 6.732v5.214l2.179 2.179H2.946L0 31.072v16.164l2.35 2.35h2.534v18.898h5.958l1.24-1.241 1.242 1.24h5.957V49.587h2.533l2.352-2.35V36.602h-2.007zm-9.779-5.341h-.598l-.894-1.107.748-9.745h.89l.748 9.745zM7.357 25.116v-4.383a4.731 4.731 0 0 1 4.726-4.726 4.732 4.732 0 0 1 4.725 4.726v4.383l-3.01 3.01h-3.431zM24.81 68.484h18.862V52.476H24.81zm2.007-14.002h14.848v11.995H26.817z"/><path d="M27.043 50.804h2.007V21.437h-2.007v12.142h-1.702l-1.176-1.176V17.902l1.771-1.77h1.714l5.175 11.87h2.832l5.624-12.898 3.23-3.23V3.182l1.176-1.176h1.702v11.06l-7.955 7.955v29.783h2.007V21.852l7.954-7.955V0h-4.54l-2.35 2.35v8.693l-3.082 3.082h-.628l2.179-2.18V6.733A6.74 6.74 0 0 0 34.242 0a6.74 6.74 0 0 0-6.732 6.732v5.214l2.179 2.179h-4.583l-2.947 2.946v16.163l2.35 2.351h2.534zm7.096-24.81l-1.043-2.391.717-7.472h.856l.717 7.471-1.043 2.393zm4.505-9.863l-1.605 3.683-.354-3.683zm-9.128-9.399a4.732 4.732 0 0 1 4.726-4.726 4.732 4.732 0 0 1 4.726 4.726v4.383l-3.01 3.01h-3.432l-3.01-3.01zm2.282 9.4l-.354 3.682-1.606-3.683z"/></g><path d="M33.235 35.096h2.014v15.708h-2.014z"/></g><path d="M35.697 12.493l-1.418-1.418 1.345-1.345h2.006v.83zm1.933-4.158h-2.006V6.732a1.4 1.4 0 0 0-.02-.233l1.978-.336c.032.187.048.378.048.569zm-2.358-2.523a1.384 1.384 0 0 0-1.03-.462V3.344c.961 0 1.881.412 2.524 1.13zm22.585 20.682l-1.42-1.418 1.345-1.345h2.007v.831zm1.932-4.157h-2.007v-1.604c0-.077-.006-.156-.019-.233l1.978-.336c.032.187.048.378.048.569zm-2.359-2.524a1.384 1.384 0 0 0-1.03-.462v-2.006c.962 0 1.882.412 2.525 1.13zm-43.892 6.681l-1.418-1.418 1.345-1.345h2.006v.831zm1.933-4.157h-2.006v-1.604a1.41 1.41 0 0 0-.02-.233l1.978-.336c.032.187.048.378.048.569zm-2.359-2.524a1.384 1.384 0 0 0-1.03-.462v-2.006c.962 0 1.882.412 2.525 1.13zm27.349 45.191h-2.14v-2.361h2.14zm0-3.699h-2.14V59.3h2.14zm0-3.344h-2.14v-2.006h2.14z" fill="#fff" fill-rule="nonzero"/></g></svg>