<svg height="60" viewBox="0 0 62 60" width="62" xmlns="http://www.w3.org/2000/svg"><g fill="none" fill-rule="evenodd"><path d="M7.216 55.982a3.587 3.587 0 0 0-2.602-3.45l-1.11-.317a3.587 3.587 0 0 1-2.602-3.449v-5.432a3.587 3.587 0 0 1 3.587-3.588h5.453a3.587 3.587 0 0 1 3.587 3.588v5.432a3.587 3.587 0 0 1-2.601 3.45l-1.11.316a3.587 3.587 0 0 0-2.602 3.45z" fill="#b9ecff"/><g fill="#7fddff"><path d="M11.562 51.964c.285-.144.545-.324.778-.533a3.567 3.567 0 0 0-.778.533zm30.83-5.904a3.587 3.587 0 0 0-2.602-3.45l-1.11-.316a3.587 3.587 0 0 1-2.602-3.45v-5.432a3.587 3.587 0 0 1 3.588-3.587h5.453a3.587 3.587 0 0 1 3.587 3.587v5.432a3.587 3.587 0 0 1-2.602 3.45l-1.11.317a3.587 3.587 0 0 0-2.602 3.45z"/><path d="M46.738 42.043c.285-.145.546-.325.778-.534a3.567 3.567 0 0 0-.778.534z"/></g><path d="M21.647 27.119a3.587 3.587 0 0 0-2.602-3.45l-1.11-.317a3.587 3.587 0 0 1-2.602-3.449v-5.432a3.587 3.587 0 0 1 3.588-3.587h5.453a3.587 3.587 0 0 1 3.587 3.587v5.432a3.587 3.587 0 0 1-2.602 3.45l-1.11.317a3.587 3.587 0 0 0-2.602 3.449z" fill="#44c9f7"/><path d="M25.993 23.102c.285-.145.546-.325.778-.534a3.567 3.567 0 0 0-.778.534z" fill="#7fddff"/><path d="M54.118 17.197a3.587 3.587 0 0 0-2.602-3.449l-1.11-.317a3.587 3.587 0 0 1-2.602-3.45V4.55A3.587 3.587 0 0 1 51.39.962h5.453a3.587 3.587 0 0 1 3.587 3.587v5.433a3.587 3.587 0 0 1-2.601 3.449l-1.11.317a3.587 3.587 0 0 0-2.602 3.45z" fill="#1fb5f3"/><path d="M58.464 13.18c.285-.144.545-.324.778-.534a3.567 3.567 0 0 0-.778.534z" fill="#7fddff"/><path d="M6.314 57.786h1.804v1.804H6.314z" fill="#000"/><path d="M8.118 55.982H6.314A2.696 2.696 0 0 0 4.366 53.4l-1.11-.318A4.508 4.508 0 0 1 0 48.766v-5.432a4.494 4.494 0 0 1 4.49-4.49h5.452a4.494 4.494 0 0 1 4.49 4.49v5.432a4.508 4.508 0 0 1-3.257 4.317l-1.11.317a2.696 2.696 0 0 0-1.947 2.582zM4.489 40.648a2.688 2.688 0 0 0-2.685 2.686v5.432c0 1.193.8 2.254 1.948 2.582l1.11.317a4.49 4.49 0 0 1 2.354 1.626 4.484 4.484 0 0 1 2.354-1.626l1.11-.317a2.697 2.697 0 0 0 1.947-2.582v-5.432a2.688 2.688 0 0 0-2.685-2.686z" fill="#000" fill-rule="nonzero"/><path d="M6.314 45.61h1.804v1.803H6.314z" fill="#fff"/><path d="M41.49 47.864h1.804v1.804H41.49z" fill="#000"/><path d="M43.294 46.06H41.49c0-1.193-.8-2.254-1.947-2.582l-1.11-.317a4.508 4.508 0 0 1-3.257-4.317v-5.432a4.494 4.494 0 0 1 4.49-4.49h5.453a4.494 4.494 0 0 1 4.489 4.49v5.432a4.508 4.508 0 0 1-3.256 4.317l-1.11.317a2.696 2.696 0 0 0-1.948 2.582zm-3.628-15.333a2.688 2.688 0 0 0-2.686 2.685v5.432c0 1.193.801 2.255 1.948 2.582l1.11.318c.963.275 1.78.86 2.354 1.625a4.484 4.484 0 0 1 2.354-1.625l1.11-.318a2.697 2.697 0 0 0 1.948-2.582v-5.432a2.688 2.688 0 0 0-2.685-2.685z" fill="#000" fill-rule="nonzero"/><path d="M41.49 35.688h1.804v1.804H41.49z" fill="#fff"/><path d="M20.745 28.923h1.804v1.804h-1.804z" fill="#000"/><path d="M22.549 27.119h-1.804c0-1.193-.8-2.254-1.948-2.582l-1.11-.317a4.508 4.508 0 0 1-3.256-4.317v-5.432a4.494 4.494 0 0 1 4.49-4.49h5.453a4.494 4.494 0 0 1 4.489 4.49v5.432a4.508 4.508 0 0 1-3.256 4.317l-1.11.317a2.696 2.696 0 0 0-1.948 2.582zm-3.628-15.333a2.688 2.688 0 0 0-2.686 2.685v5.432c0 1.193.801 2.255 1.948 2.582l1.11.318a4.48 4.48 0 0 1 2.354 1.625 4.484 4.484 0 0 1 2.354-1.625l1.11-.318a2.697 2.697 0 0 0 1.948-2.582v-5.432a2.688 2.688 0 0 0-2.685-2.685z" fill="#000" fill-rule="nonzero"/><path d="M20.745 16.746h1.804v1.804h-1.804z" fill="#fff"/><path d="M53.216 19.001h1.804v1.804h-1.804z" fill="#000"/><path d="M55.02 17.197h-1.804a2.698 2.698 0 0 0-1.948-2.582l-1.11-.317a4.508 4.508 0 0 1-3.256-4.316V4.549A4.494 4.494 0 0 1 51.392.06h5.452a4.494 4.494 0 0 1 4.49 4.49v5.432a4.508 4.508 0 0 1-3.257 4.316l-1.11.317a2.696 2.696 0 0 0-1.947 2.582zM51.39 1.864a2.688 2.688 0 0 0-2.685 2.685v5.433c0 1.192.8 2.254 1.948 2.582l1.11.317c.962.275 1.779.86 2.354 1.625a4.484 4.484 0 0 1 2.354-1.625l1.11-.317a2.697 2.697 0 0 0 1.947-2.582V4.549a2.688 2.688 0 0 0-2.685-2.685z" fill="#000" fill-rule="nonzero"/><path d="M53.216 6.825h1.804v1.804h-1.804z" fill="#fff"/><path d="M29.765 59.59H9.922v-1.804h19.843c.994 0 1.804-.81 1.804-1.804 0-.995-.81-1.804-1.804-1.804h-3.157a3.16 3.16 0 0 1-3.157-3.157 3.16 3.16 0 0 1 3.157-3.157h13.078v1.804H26.608c-.746 0-1.353.607-1.353 1.353s.607 1.353 1.353 1.353h3.157c1.99 0 3.608 1.618 3.608 3.608s-1.619 3.608-3.608 3.608zm21.647-9.922h-6.314v-1.804h6.314a2.709 2.709 0 0 0 2.706-2.706 2.709 2.709 0 0 0-2.706-2.706h-.902v-1.804h.902c2.487 0 4.51 2.023 4.51 4.51s-2.023 4.51-4.51 4.51zm-18.039-7.216H21.647a4.515 4.515 0 0 1-4.51-4.51v-.45a2.257 2.257 0 0 0-2.255-2.255 3.16 3.16 0 0 1-3.157-3.157 3.16 3.16 0 0 1 3.157-3.157h4.06v1.804h-4.06c-.746 0-1.353.607-1.353 1.353s.607 1.353 1.353 1.353a4.063 4.063 0 0 1 4.06 4.059v.45a2.709 2.709 0 0 0 2.705 2.706h11.726zm-7.227-11.725h-1.793v-1.804h1.793a9.947 9.947 0 0 0 7.08-2.933l3.528-3.528a11.74 11.74 0 0 1 8.355-3.46h6.303v1.803h-6.303a9.947 9.947 0 0 0-7.08 2.933l-3.528 3.528a11.74 11.74 0 0 1-8.355 3.46z" fill="#000"/></g></svg>