<svg height="66" viewBox="0 0 35 66" width="35" xmlns="http://www.w3.org/2000/svg"><g fill="none" fill-rule="evenodd"><path d="M33.758 64.057c0-6.318-2.894-11.958-7.429-15.67-4.643-3.801-7.415-9.423-7.415-15.424v-.899c0-6 2.772-11.623 7.415-15.424 4.535-3.711 7.429-9.352 7.429-15.67H1.039c0 6.318 2.895 11.959 7.43 15.67 4.643 3.801 7.414 9.423 7.414 15.424v.899c0 6-2.771 11.623-7.415 15.424-4.535 3.712-7.429 9.352-7.429 15.67v.97h32.79z" fill="#b9ecff"/><path d="M29.46 51.682l-2.862-1.068a17.017 17.017 0 0 0-11.63.316l-3.948 1.61 14.316 1.083z" fill="#ffec76"/><path d="M18.914 32.963h-3.03l-.002-.703a19.99 19.99 0 0 0-4.145-12.16l-.717-.932.889-.574a7.889 7.889 0 0 1 6.877-.828 7.888 7.888 0 0 0 3.962.318l2.102-.371-4.852 7.521zm10.644 18.962l-1.84.773a19.113 19.113 0 0 1-10.427.123 19.113 19.113 0 0 0-12.526.88l-1.654.65S.377 58.233.894 64.785h32.79s-.486-9.463-4.126-12.86z" fill="#fef0bd"/><path d="M1.072 61.145h32.513v3.64H1.072z" fill="#fff"/><path d="M1.072 61.145h4.367v3.64H1.072z" fill="#b9ecff"/><path d="M1.072.97h32.513v3.64H1.072zm7.036 55.322h9.706v1.941H8.108zm11.647 0h1.941v1.941h-1.94z" fill="#fff"/><path d="M13.932 46.587h1.94v1.94h-1.94zm1.941-1.941h1.941v1.94h-1.941z" fill="#000"/><path d="M17.814 7.764h6.794v1.942h-6.794zm8.735 0h1.941v1.942h-1.94z" fill="#fff"/><g fill="#000"><path d="M34.729 64.021a21.144 21.144 0 0 0-7.785-16.385c-4.486-3.672-7.06-9.02-7.06-14.673v-.899c0-5.653 2.574-11 7.06-14.673A21.145 21.145 0 0 0 34.729.971V0H.069v.97a21.145 21.145 0 0 0 7.785 16.421c4.486 3.672 7.059 9.02 7.059 14.673v.899c0 5.653-2.573 11.001-7.06 14.673A21.145 21.145 0 0 0 .07 64.056v1.942h34.8zm-7.161-12.01l-.032.014a18.13 18.13 0 0 1-9.846.102 19.86 19.86 0 0 0-2.002-.432 16.074 16.074 0 0 1 10.587-.165zM11.215 17.888a21.803 21.803 0 0 0-2.132-1.998A19.22 19.22 0 0 1 2.627 5.823h5.239v-1.94H2.23a19.353 19.353 0 0 1-.196-1.942h30.73a19.353 19.353 0 0 1-.196 1.941H10.05v1.941h22.12a19.22 19.22 0 0 1-6.455 10.066c-.354.29-.696.59-1.028.898l-.005-.03-2.102.371a6.935 6.935 0 0 1-3.475-.279 8.804 8.804 0 0 0-7.724.93zm1.269 1.492a6.872 6.872 0 0 1 5.983-.697 8.877 8.877 0 0 0 4.07.415c-2.94 3.664-4.576 8.18-4.592 12.895h-1.092c-.016-4.595-1.57-9-4.37-12.613zM9.083 49.138c4.681-3.832 7.468-9.33 7.746-15.205h1.14c.277 5.875 3.064 11.373 7.746 15.205.12.099.24.2.357.301a18.028 18.028 0 0 0-11.47.592l-3.56 1.45a20.157 20.157 0 0 0-5.225 1.072 19.405 19.405 0 0 1 3.266-3.415zm-4.976 6.164l1.158-.454.028-.012a18.164 18.164 0 0 1 6.08-1.43l.013.032.094-.038a18.14 18.14 0 0 1 5.702.6c3.596.974 7.384.93 10.956-.129l1.371-.571a19.163 19.163 0 0 1 2.883 6.874H2.402c.349-1.7.922-3.338 1.705-4.872zM2.01 64.057c0-.653.035-1.3.099-1.941h30.579c.064.64.1 1.288.1 1.94z" fill-rule="nonzero"/><path d="M16.358 40.763H18.3v1.941h-1.94z"/></g></g></svg>